<svg width="116" height="88" viewBox="0 0 116 88" fill="none" xmlns="http://www.w3.org/2000/svg">
<g clip-path="url(#clip0_11_171)">
<path d="M93.3845 35.717C92.2103 17.534 79.5658 0 56.375 0C35.1642 0 18.8073 15.7657 17.941 36.806C6.336 40.4167 0 52.8358 0 61.875C0 75.7927 11.5665 88 24.75 88H42.625C42.9897 88 43.3394 87.8551 43.5973 87.5973C43.8551 87.3394 44 86.9897 44 86.625C44 86.2603 43.8551 85.9106 43.5973 85.6527C43.3394 85.3949 42.9897 85.25 42.625 85.25H24.75C13.0295 85.25 2.75 74.327 2.75 61.875C2.75 53.4847 10.1035 38.5 24.75 38.5H28.875C29.2397 38.5 29.5894 38.3551 29.8473 38.0973C30.1051 37.8394 30.25 37.4897 30.25 37.125C30.25 36.7603 30.1051 36.4106 29.8473 36.1527C29.5894 35.8949 29.2397 35.75 28.875 35.75H24.75C23.3503 35.75 22.0275 35.9067 20.7377 36.1322C21.8158 19.6597 34.3365 2.75 56.375 2.75C79.992 2.75 90.75 21.2822 90.75 38.5V42.625C90.75 42.9897 90.8949 43.3394 91.1527 43.5973C91.4106 43.8551 91.7603 44 92.125 44C92.4897 44 92.8394 43.8551 93.0973 43.5973C93.3551 43.3394 93.5 42.9897 93.5 42.625V38.4753C101.802 39.3855 112.75 48.2955 112.75 61.875C112.75 72.3965 102.6 85.25 90.75 85.25H70.125C61.2205 85.25 57.75 81.7795 57.75 72.875V35.1533L68.9645 46.3458C69.0912 46.4772 69.2427 46.5822 69.4104 46.6545C69.578 46.7268 69.7584 46.765 69.941 46.7668C70.1235 46.7686 70.3046 46.7341 70.4737 46.6652C70.6428 46.5963 70.7964 46.4944 70.9257 46.3655C71.055 46.2366 71.1573 46.0832 71.2267 45.9143C71.2961 45.7455 71.3311 45.5645 71.3298 45.3819C71.3285 45.1993 71.2908 45.0189 71.219 44.851C71.1472 44.6832 71.0426 44.5313 70.9115 44.4042L58.6438 32.1612C57.0103 30.5332 55.7425 30.5332 54.1118 32.1612L41.844 44.4042C41.5935 44.6636 41.4549 45.0109 41.4581 45.3714C41.4612 45.7319 41.6058 46.0768 41.8607 46.3318C42.1157 46.5867 42.4606 46.7313 42.8211 46.7344C43.1816 46.7376 43.5289 46.599 43.7882 46.3485L55 35.1533V72.875C55 83.336 59.664 88 70.125 88H90.75C104.079 88 115.5 73.634 115.5 61.875C115.5 47.6657 103.887 36.553 93.3845 35.717Z" fill="url(#paint0_linear_11_171)"/>
</g>
<defs>
<linearGradient id="paint0_linear_11_171" x1="64.2901" y1="-9.61969" x2="64.2901" y2="99.1062" gradientUnits="userSpaceOnUse">
<stop stop-color="#C0B7E8"/>
<stop offset="1" stop-color="#8176AF"/>
</linearGradient>
<clipPath id="clip0_11_171">
<rect width="115.5" height="88" fill="white"/>
</clipPath>
</defs>
</svg>
